# xmcd CD database file
#
# Track frame offsets:
#	150
#	16583
#	32846
#	52282
#	75652
#	94629
#	120891
#	135741
#	151182
#	178658
#	194483
#	213566
#	229784
#
# Disc length: 3368 seconds
#
# Revision: 0
# Processed by: cddbd v1.4PL0 Copyright (c) Steve Scherf et al.
# Submitted via: NeoAudio 9.9.9
#
DISCID=a40d260d
DTITLE=Charles Walker - Leavin' This Old Town
DYEAR=1900
DGENRE=Blues
TTITLE0=Homewrecker Legs
TTITLE1=Leavin' This Old Town
TTITLE2=Fleetwood Cadillac
TTITLE3=Make It Rain
TTITLE4=Nothing a Young Girl Can Do
TTITLE5=Need Somebody
TTITLE6=I'm Available
TTITLE7=Judge of Hearts
TTITLE8=The Monkey Song
TTITLE9=You Got the Walk
TTITLE10=The Tattler
TTITLE11=When I'm Gone
TTITLE12=The Very Thing That Makes You Rich
EXTD=
EXTT0=
EXTT1=
EXTT2=
EXTT3=
EXTT4=
EXTT5=
EXTT6=
EXTT7=
EXTT8=
EXTT9=
EXTT10=
EXTT11=
EXTT12=
PLAYORDER=
